# xmcd
#
# Track frame offsets:
#	150
#	19121
#	34288
#	50879
#	70240
#	90447
#	111379
#	125878
#	144596
#	164743
#
# Disc length: 2462 seconds
#
# Revision: 0
# Processed by: cddbd v1.5.2PL0 Copyright (c) Steve Scherf et al.
# Submitted via: dBpowerAMP V4.0
#
DISCID=99099c0a
DTITLE=Ray Davies - Working Man's Cafe
DYEAR=2007
DGENRE=Blues
TTITLE0=Vietnam Cowboys
TTITLE1=You're Asking Me
TTITLE2=Working Man's Cafe
TTITLE3=Morphine Song
TTITLE4=In A Moment
TTITLE5=Peace in our Time
TTITLE6=No One Listen
TTITLE7=Imaginary Man
TTITLE8=One More Time
TTITLE9=The Voodoo Walk
EXTD=
EXTT0=
EXTT1=
EXTT2=
EXTT3=
EXTT4=
EXTT5=
EXTT6=
EXTT7=
EXTT8=
EXTT9=
PLAYORDER=
